<svg xmlns="http://www.w3.org/2000/svg" viewBox="0 0 161.8 35.7"><defs><style>.cls-1{fill:#104d9c;}.cls-2{fill:#fff;}</style></defs><title>logo_left</title><g id="图层_2" data-name="图层 2"><g id="Layer_1" data-name="Layer 1"><rect class="cls-1" x="9.75" y="9.65" width="6.46" height="6.66"/><rect class="cls-1" x="13" y="19.47" width="6.46" height="6.66"/><polygon class="cls-1" points="38.94 6.53 38.94 0 22.71 0 22.71 5.52 22.71 6.66 22.71 14.74 22.71 15.26 22.71 22.72 32.48 22.72 32.48 29.2 16.22 29.2 16.22 35.7 38.94 35.7 38.94 29.35 38.94 21.39 38.94 19.61 38.94 16.22 29.2 16.22 29.2 6.53 38.94 6.53"/><rect class="cls-1" width="12.98" height="6.66"/><polygon class="cls-2" points="61.65 23.15 61.65 23.15 55.83 7.28 51.57 7.28 59.52 27.65 63.78 27.65 71.8 7.28 67.54 7.28 61.65 23.15"/><path class="cls-2" d="M81.29,7.28A5.69,5.69,0,0,0,75.62,13v1a5.69,5.69,0,0,0,5.67,5.68H90a1.75,1.75,0,0,1,1.74,1.75v.29A1.75,1.75,0,0,1,90,23.39H75.53v4.26H90.09A5.69,5.69,0,0,0,95.76,22V21a5.68,5.68,0,0,0-5.67-5.67H81.36a1.75,1.75,0,0,1-1.74-1.75v-.3a1.74,1.74,0,0,1,1.74-1.74H95.77V7.28Z"/><path class="cls-2" d="M109.85,7.28H99.49V27.65h10.36a9.87,9.87,0,0,0,9.84-9.85v-.67A9.87,9.87,0,0,0,109.85,7.28Zm5.47,10.38a5.73,5.73,0,0,1-5.71,5.71h-5.86V11.56h5.86a5.73,5.73,0,0,1,5.71,5.71Z"/><path class="cls-2" d="M127.68,15.39a6.11,6.11,0,1,0,5.69,8.29H131a4,4,0,0,1-7.27-2.13h10.06v-.06A6.1,6.1,0,0,0,127.68,15.39Zm0,2.13a3.94,3.94,0,0,1,3.37,1.9h-6.74A3.94,3.94,0,0,1,127.68,17.52Z"/><path class="cls-2" d="M141.56,15.39a6.11,6.11,0,1,0,5.69,8.29h-2.38a4,4,0,0,1-7.28-2.13h10.07v-.06A6.1,6.1,0,0,0,141.56,15.39Zm0,2.13a4,4,0,0,1,3.37,1.9h-6.74A4,4,0,0,1,141.56,17.52Z"/><path class="cls-2" d="M155.7,15.39a6.06,6.06,0,0,0-4,1.52V15.34h-2.14V35.7h2.14V26.08a6.1,6.1,0,1,0,4-10.69Zm0,10.1a4,4,0,1,1,4-4A4,4,0,0,1,155.7,25.49Z"/></g></g></svg>